<svg width="20" height="20" viewBox="0 0 20 20" fill="none" xmlns="http://www.w3.org/2000/svg">
<path d="M12.1318 11.2981C11.5988 12.1967 10.5636 12.6697 9.53543 12.4842C8.50723 12.2988 7.70247 11.494 7.51702 10.4658C7.33158 9.4376 7.8045 8.4024 8.70313 7.86945" stroke="#1E3173" stroke-width="1.5" stroke-linecap="round" stroke-linejoin="round"/>
<path d="M14.9971 14.1635C13.5598 15.2537 11.804 15.8413 10 15.8358C7.01075 15.889 4.24879 14.2461 2.8687 11.594C2.37295 10.5891 2.37295 9.41085 2.8687 8.406C3.5589 7.03152 4.65915 5.90547 6.01727 5.18359" stroke="#1E3173" stroke-width="1.5" stroke-linecap="round" stroke-linejoin="round"/>
<path d="M17.0227 11.7787C17.0562 11.7154 17.0997 11.6586 17.1313 11.594C17.6271 10.5891 17.6271 9.41084 17.1313 8.40599C15.7512 5.75385 12.9893 4.111 10 4.16424C9.8126 4.16424 9.63043 4.18925 9.44542 4.20144" stroke="#1E3173" stroke-width="1.5" stroke-linecap="round" stroke-linejoin="round"/>
<path d="M17.5031 16.6694L3.33055 2.49688" stroke="#1E3173" stroke-width="1.5" stroke-linecap="round" stroke-linejoin="round"/>
</svg>
